<?xml version="1.0" encoding="UTF-8" standalone="no"?><!DOCTYPE svg PUBLIC "-//W3C//DTD SVG 1.1//EN" "http://www.w3.org/Graphics/SVG/1.1/DTD/svg11.dtd"><svg width="100%" height="100%" viewBox="0 0 1232 1406" version="1.1" xmlns="http://www.w3.org/2000/svg" xmlns:xlink="http://www.w3.org/1999/xlink" xml:space="preserve" xmlns:serif="http://www.serif.com/" style="fill-rule:evenodd;clip-rule:evenodd;stroke-linecap:round;stroke-linejoin:round;stroke-miterlimit:1.5;"><rect id="Mesa-de-trabajo1" serif:id="Mesa de trabajo1" x="0" y="0" width="1231.177" height="1405.308" style="fill:none;"/><path d="M112.078,428.855c-3.359,5.122 -3.597,11.686 -0.618,17.038c2.979,5.352 8.683,8.608 14.807,8.452c110.3,-2.808 476.94,-12.143 548.316,-13.96c7.549,-0.192 14.491,-4.185 18.452,-10.615c11.522,-18.7 36.234,-58.806 53.052,-86.1c3.383,-5.491 3.462,-12.4 0.205,-17.966c-3.257,-5.566 -9.319,-8.883 -15.763,-8.623c-109.008,4.388 -457.41,18.413 -541.53,21.799c-11.553,0.465 -22.171,6.479 -28.511,16.148c-12.356,18.843 -33.468,51.039 -48.411,73.827Z" style="fill:#0d0907;"/><path d="M112.078,428.855l48.411,-73.827c6.34,-9.669 16.958,-15.682 28.511,-16.148l541.53,-21.799c6.444,-0.259 12.506,3.057 15.763,8.623c3.257,5.566 3.178,12.475 -0.205,17.966l-53.052,86.1c-3.962,6.429 -10.903,10.422 -18.452,10.615l-548.316,13.96c-6.124,0.156 -11.827,-3.1 -14.807,-8.452c-2.979,-5.352 -2.741,-11.916 0.618,-17.038Zm11.027,7.231c-0.669,1.02 -0.716,2.328 -0.123,3.394c0.593,1.066 1.73,1.715 2.95,1.684l548.316,-13.96c3.094,-0.079 5.938,-1.715 7.562,-4.35l53.052,-86.1c0.827,-1.342 0.846,-3.03 0.05,-4.39c-0.796,-1.36 -2.277,-2.17 -3.851,-2.107l-541.53,21.799c-7.3,0.294 -14.008,4.093 -18.014,10.203l-48.411,73.827Z" style="fill:#231f20;"/><path d="M752.918,443.227c-6.716,0.136 -12.982,-3.363 -16.389,-9.152c-3.407,-5.789 -3.425,-12.966 -0.047,-18.771l51.225,-88.028c4.082,-7.015 11.881,-11.003 19.957,-10.206l123.513,12.183c0,0 36.136,21.883 59.988,36.327c13.469,8.156 24.702,19.529 32.69,33.098c2.274,3.862 4.218,7.164 5.113,8.685c0.351,0.597 0.686,1.203 1.003,1.819c1.495,2.899 6.136,11.899 8.485,16.454c0.924,1.791 1.609,3.696 2.039,5.665c1.408,6.456 4.625,21.207 4.625,21.207l3.343,22.116c0,0 3.635,17.641 4.868,23.628c0.269,1.305 0.441,2.628 0.515,3.959c0.374,6.702 1.56,27.962 1.56,27.962l1.543,21.088l1.029,28.288l0,62.21c0,3.27 -0.232,6.535 -0.694,9.772c-1.173,8.211 -3.42,23.941 -3.42,23.941l-10.56,43.37l-11.468,34.645l-13.525,44.978l-10.289,21.408c0,0 -8.429,20.139 -11.067,26.443c-0.519,1.241 -1.118,2.446 -1.794,3.609c-3.581,6.168 -15.422,26.562 -15.422,26.562l-13.066,22.915l-12.524,17.841l-22.972,30.405l-28.511,23.59l-25.114,21.347l-31.393,13.813l-26.37,5.023l-269.073,17.004c-6.899,0.436 -13.586,-2.472 -17.972,-7.815c-4.386,-5.343 -5.935,-12.468 -4.164,-19.15l18.986,-71.605c2.953,-11.137 13.032,-18.891 24.553,-18.891l157.259,-0c0,-0 29.586,-2.076 50.715,-3.559c13.633,-0.957 26.725,-5.716 37.79,-13.738c11.33,-8.214 25.155,-18.238 30.759,-22.3c1.692,-1.227 3.322,-2.537 4.884,-3.925c6.117,-5.437 22.824,-20.288 33.482,-29.762c6.188,-5.501 11.194,-12.202 14.713,-19.696c7.37,-15.694 20.427,-43.5 26.364,-56.142c2.056,-4.378 3.649,-8.959 4.752,-13.668c3.375,-14.404 11.014,-47.002 14.498,-61.868c1.192,-5.085 1.877,-10.276 2.045,-15.497c0.367,-11.37 1.002,-31.077 1.002,-31.077c0,0 3.504,-75.923 3.753,-81.319c0.009,-0.201 0.018,-0.403 0.025,-0.604c0.11,-2.958 0.991,-26.759 1.2,-32.404c0.03,-0.798 0.032,-1.597 0.007,-2.395c-0.152,-4.865 -0.73,-23.345 -1.032,-33.011c-0.124,-3.961 -0.82,-7.884 -2.067,-11.646c-1.53,-4.618 -3.658,-11.037 -5.049,-15.235c-0.942,-2.841 -2.347,-5.506 -4.16,-7.887c-2.351,-3.089 -5.757,-7.564 -8.321,-10.932c-2.239,-2.942 -5.748,-4.637 -9.444,-4.562c-30.829,0.624 -172.378,3.49 -172.378,3.49Z" style="fill:#4f39f6;"/><path d="M752.918,443.227c-6.716,0.136 -12.982,-3.363 -16.389,-9.152c-3.407,-5.789 -3.425,-12.966 -0.047,-18.771l51.225,-88.028c4.082,-7.015 11.881,-11.003 19.957,-10.206l123.513,12.183l59.988,36.327c13.469,8.156 24.702,19.529 32.69,33.098l5.113,8.685c0.351,0.597 0.686,1.203 1.003,1.819l8.485,16.454c0.924,1.791 1.609,3.696 2.039,5.665l4.625,21.207l3.343,22.116l4.868,23.628c0.269,1.305 0.441,2.628 0.515,3.959l1.56,27.962l1.543,21.088l1.029,28.288l0,62.21c0,3.27 -0.232,6.535 -0.694,9.772l-3.42,23.941l-10.56,43.37l-11.468,34.645l-13.525,44.978l-10.289,21.408l-11.067,26.443c-0.519,1.241 -1.118,2.446 -1.794,3.609l-15.422,26.562l-13.066,22.915l-12.524,17.841l-22.972,30.405l-28.511,23.59l-25.114,21.347l-31.393,13.813l-26.37,5.023l-269.073,17.004c-6.899,0.436 -13.586,-2.472 -17.972,-7.815c-4.386,-5.343 -5.935,-12.468 -4.164,-19.15l18.986,-71.605c2.953,-11.137 13.032,-18.891 24.553,-18.891l157.259,-0l50.715,-3.559c13.633,-0.957 26.725,-5.716 37.79,-13.738l30.759,-22.3c1.692,-1.227 3.322,-2.537 4.884,-3.925l33.482,-29.762c6.188,-5.501 11.194,-12.202 14.713,-19.696l26.364,-56.142c2.056,-4.378 3.649,-8.959 4.752,-13.668l14.498,-61.868c1.192,-5.085 1.877,-10.276 2.045,-15.497l1.002,-31.077l3.753,-81.319l0.025,-0.604l1.2,-32.404c0.03,-0.798 0.032,-1.597 0.007,-2.395l-1.032,-33.011c-0.124,-3.961 -0.82,-7.884 -2.067,-11.646l-5.049,-15.235c-0.942,-2.841 -2.347,-5.506 -4.16,-7.887l-8.321,-10.932c-2.239,-2.942 -5.748,-4.637 -9.444,-4.562l-172.378,3.49Zm-0.267,-13.184l172.378,-3.49c7.907,-0.16 15.414,3.466 20.204,9.759l8.321,10.932c2.695,3.54 4.784,7.502 6.184,11.725l5.049,15.235c1.647,4.969 2.566,10.15 2.73,15.383l1.032,33.011c0.034,1.098 0.031,2.197 -0.01,3.295l-1.2,32.404c-0.009,0.241 -0.019,0.483 -0.03,0.724l-3.749,81.227l-1,30.985c-0.196,6.091 -0.996,12.147 -2.386,18.08l-14.498,61.868c-1.313,5.604 -3.208,11.055 -5.655,16.265l-26.364,56.142c-4.279,9.112 -10.365,17.259 -17.888,23.947l-33.482,29.762c-1.888,1.678 -3.859,3.262 -5.904,4.745l-30.759,22.3c-13.061,9.469 -28.514,15.087 -44.607,16.216l-50.715,3.559c-0.307,0.022 -0.615,0.032 -0.923,0.032l-157.259,0c-5.541,0 -10.387,3.729 -11.807,9.085l-18.986,71.605c-0.685,2.583 -0.086,5.338 1.61,7.404c1.696,2.066 4.281,3.19 6.948,3.021l268.249,-16.952l24.087,-4.588l28.259,-12.434l23.647,-20.1l0.134,-0.112l27.325,-22.608l21.905,-28.992l12.035,-17.145l12.759,-22.377l0.052,-0.09l15.422,-26.562c0.389,-0.67 0.734,-1.364 1.033,-2.079l11.067,-26.443c0.088,-0.209 0.181,-0.416 0.279,-0.621l9.843,-20.48l13.229,-43.992c0.035,-0.116 0.071,-0.231 0.109,-0.346l11.301,-34.139l10.283,-42.23l3.33,-23.308c0.374,-2.619 0.562,-5.262 0.562,-7.907l-0,-61.97l-1.011,-27.807l-1.525,-20.846l-0.015,-0.228l-1.56,-27.962c-0.038,-0.683 -0.127,-1.362 -0.265,-2.033l-4.868,-23.628c-0.047,-0.229 -0.088,-0.459 -0.123,-0.69l-3.279,-21.695l-4.534,-20.79c-0.184,-0.845 -0.478,-1.663 -0.875,-2.431l-8.485,-16.454c-0.205,-0.397 -0.42,-0.788 -0.647,-1.172l-5.113,-8.685c-6.881,-11.687 -16.556,-21.484 -28.158,-28.509l-57.429,-34.777l-120.536,-11.89c-2.94,-0.29 -5.78,1.162 -7.266,3.716l-51.225,88.028c-0.981,1.686 -0.976,3.769 0.014,5.45c0.989,1.681 2.809,2.697 4.759,2.657Z" style="fill:#231f20;"/><path d="M615.589,490.958c0,0 61.858,-3.768 94.358,-5.748c5.002,-0.305 9.903,1.498 13.516,4.971c3.613,3.473 5.607,8.299 5.5,13.31c-1.379,64.518 -5.8,271.435 -7.376,345.207c-0.315,14.757 -12.245,26.622 -27.004,26.857c-18.156,0.289 -41.899,0.667 -58.597,0.932c-5.38,0.086 -10.569,-1.992 -14.403,-5.766c-3.835,-3.774 -5.994,-8.929 -5.994,-14.31l0,-365.453" style="stroke:#231f20;stroke-width:13.19px;"/><path d="M509.746,912.557c5.41,-0.363 10.656,1.944 14.046,6.176c3.39,4.232 4.496,9.855 2.96,15.056c-6.574,22.269 -16.469,55.79 -22.699,76.896c-3.463,11.732 -14.014,19.955 -26.237,20.448c-65.226,2.631 -268.806,10.843 -349.524,14.099c-6.256,0.252 -12.11,-3.079 -15.09,-8.586c-2.979,-5.507 -2.564,-12.23 1.071,-17.328c18.437,-25.863 44.848,-62.913 55.435,-77.764c2.943,-4.128 7.583,-6.719 12.641,-7.058c43.837,-2.938 255.731,-17.137 327.396,-21.94Z" style="fill:#0d0907;"/><path d="M509.746,912.557c5.41,-0.363 10.656,1.944 14.046,6.176c3.39,4.232 4.496,9.855 2.96,15.056l-22.699,76.896c-3.463,11.732 -14.014,19.955 -26.237,20.448l-349.524,14.099c-6.256,0.252 -12.11,-3.079 -15.09,-8.586c-2.979,-5.507 -2.564,-12.23 1.071,-17.328l55.435,-77.764c2.943,-4.128 7.583,-6.719 12.641,-7.058l327.396,-21.94Zm0.882,13.157l-327.396,21.94c-1.115,0.075 -2.137,0.646 -2.786,1.555l-55.435,77.764c-0.713,1 -0.794,2.319 -0.21,3.4c0.584,1.08 1.733,1.734 2.96,1.684l349.524,-14.099c6.579,-0.265 12.258,-4.691 14.122,-11.006l22.699,-76.896c0.314,-1.064 0.088,-2.213 -0.605,-3.079c-0.693,-0.866 -1.766,-1.337 -2.873,-1.263Z" style="fill:#231f20;"/><path d="M520.932,860.014c-0,12.538 -9.482,23.045 -21.954,24.327c-25.715,2.644 -67.936,6.984 -92.659,9.526c-4.964,0.51 -9.906,-1.159 -13.544,-4.575c-3.638,-3.416 -5.614,-8.243 -5.417,-13.23c2.768,-69.848 12.045,-303.91 14.776,-372.803c0.426,-10.743 9.258,-19.232 20.01,-19.232c23.675,0 63.319,0 84.471,0c7.907,0 14.317,6.41 14.317,14.317c-0,59.716 -0,289.194 -0,361.67Z" style="fill:#4f39f6;"/><path d="M520.932,860.014c-0,12.538 -9.482,23.045 -21.954,24.327l-92.659,9.526c-4.964,0.51 -9.906,-1.159 -13.544,-4.575c-3.638,-3.416 -5.614,-8.243 -5.417,-13.23l14.776,-372.803c0.426,-10.743 9.258,-19.232 20.01,-19.232l84.471,0c7.907,0 14.317,6.41 14.317,14.317l-0,361.67Zm-13.186,0l-0,-361.67c-0,-0.625 -0.506,-1.131 -1.131,-1.131l-84.472,0c-3.672,0 -6.688,2.899 -6.834,6.568l-14.776,372.803c-0.046,1.167 0.416,2.296 1.267,3.095c0.851,0.799 2.007,1.19 3.169,1.07l92.659,-9.526c5.747,-0.591 10.117,-5.432 10.117,-11.21Z" style="fill:#231f20;"/></svg>